<?xml version="1.0" encoding="UTF-8"?>
<svg width="541px" height="141px" viewBox="0 0 541 141" version="1.1" xmlns="http://www.w3.org/2000/svg" xmlns:xlink="http://www.w3.org/1999/xlink">
    <!-- Generator: Sketch 53 (72520) - https://sketchapp.com -->
    <title>Group 2</title>
    <desc>Created with Sketch.</desc>
    <defs>
        <polygon id="path-1" points="0 0.404625455 78.2719846 0.404625455 78.2719846 111.999389 0 111.999389"></polygon>
        <polygon id="path-3" points="0.727812821 0.404625455 78.5118205 0.404625455 78.5118205 110.861062 0.727812821 110.861062"></polygon>
        <polygon id="path-5" points="0 0 39 0 39 76 0 76"></polygon>
    </defs>
    <g id="Page-1" stroke="none" stroke-width="1" fill="none" fill-rule="evenodd">
        <g id="Artboard" transform="translate(-454.000000, -256.000000)">
            <g id="Group-2" transform="translate(454.000000, 256.000000)">
                <g id="Group-13" transform="translate(135.000000, 0.000000)">
                    <g id="Group-3" transform="translate(0.000000, 29.000000)">
                        <mask id="mask-2" fill="white">
                            <use xlink:href="#path-1"></use>
                        </mask>
                        <g id="Clip-2"></g>
                        <path d="M20.5817282,111.999389 C14.5858308,110.372335 10.6966,105.157207 8.91201026,99.9441164 C17.1766256,91.9615709 24.6330103,83.9790255 29.6545744,75.99648 C14.5858308,51.5601164 6.31918974,28.4270255 -0.00081025641,2.03371636 C2.91611282,1.05626182 7.93970256,0.404625455 12.6412154,0.404625455 C14.9079077,0.404625455 17.6627795,0.730443636 20.0935487,1.05626182 C24.3068821,20.9332073 30.3027795,39.3419345 39.3796769,58.4022982 C39.8638051,59.5426618 40.349959,60.6830255 40.6740615,61.6625164 C41.162241,60.5201164 41.4863436,59.3777164 41.9704718,58.4022982 C50.721241,40.3193891 55.5848051,20.7702982 59.4740359,1.05626182 C61.7427538,0.730443636 64.4976256,0.404625455 66.7643179,0.404625455 C70.8176256,0.404625455 75.030959,1.21917091 78.2719846,2.35953455 C68.5489077,51.2322618 52.0196769,83.81408 20.5817282,111.999389 Z" id="Fill-1" fill="#1D1D1B" mask="url(#mask-2)"></path>
                    </g>
                    <path d="M157,101.836943 C149.254765,105.591949 137.473538,110 120.532854,110 C96.6496975,110 86,98.0819367 86,79.3069054 L86,30.8163057 C89.227181,30.1632611 92.293003,30 95.358825,30 C98.263288,30 101.490469,30.1632611 104.394932,30.8163057 L104.394932,73.9192878 C104.394932,86.4903957 107.62413,93.5106247 122.95324,93.5106247 C128.923525,93.5106247 133.925656,92.5290171 138.605068,90.5719242 L138.605068,30.8163057 C141.668873,30.1632611 144.898071,30 147.800517,30 C150.868356,30 153.932161,30.1632611 157,30.8163057 L157,101.836943 Z" id="Fill-4" fill="#1D1D1B"></path>
                    <path d="M253,106.059917 C250.228697,107.029958 242.56686,108 235.231058,108 C232.622773,108 225.776024,107.838326 222.841704,107.514979 L200.345245,82.1322206 C198.552049,83.1022623 196.919833,83.9086095 195.289655,84.555304 L195.289655,106.868285 C191.540245,107.514979 187.4648,107.838326 183.389354,107.838326 C179.313909,107.838326 175.401481,107.514979 171,106.868285 L171,0.970041728 C174.912428,0.323347243 178.987873,0 182.900301,0 C186.975746,0 191.051192,0.323347243 195.289655,0.970041728 L195.289655,59.334219 C205.722795,52.5439269 215.016848,42.5201624 221.211526,30.7179881 C225.286971,30.2329672 229.688452,30.2329672 233.111826,30.2329672 C237.513307,30.2329672 244.197038,30.5563144 248.924555,31.3646825 C240.121592,46.7236766 230.175468,59.1725454 219.581347,68.71331 L253,106.059917 Z" id="Fill-6" fill="#1D1D1B"></path>
                    <path d="M270.255173,65.5100121 L298.580006,56.5795401 C298.093681,52.5202346 294.998705,46.8351773 286.047488,46.8351773 C275.78991,46.8351773 270.906319,53.979555 270.255173,65.5100121 M321.532888,98.9586891 C315.023467,104.1546 303.953992,110 287.347745,110 C263.743717,110 246,95.3865003 246,69.2445732 C246,45.0490829 263.255358,28 286.533813,28 C313.07003,28 322.837214,47.8094107 323,65.0228955 L272.20861,80.4462266 C274.975978,87.2678894 280.673502,91.0044801 290.440686,91.0044801 C299.393938,91.0044801 307.207685,86.6184005 312.907243,82.5590951 C317.788801,86.6184005 320.883777,92.7865152 321.532888,98.9586891" id="Fill-8" fill="#1D1D1B"></path>
                    <g id="Group-12" transform="translate(327.000000, 29.000000)">
                        <mask id="mask-4" fill="white">
                            <use xlink:href="#path-3"></use>
                        </mask>
                        <g id="Clip-11"></g>
                        <path d="M78.5124282,1.38208 L78.5124282,73.2270255 C78.5124282,98.8057891 61.172941,110.861062 37.9996077,110.861062 C19.5257615,110.861062 7.36988974,104.016844 0.727812821,96.8488436 C1.69809487,90.4974255 6.39758205,84.1419345 13.851941,81.37248 C19.5257615,87.7259345 26.3298897,91.4728436 36.8632231,91.4728436 C49.3431974,91.4728436 54.3667872,85.7710255 54.3667872,77.6255709 L54.3667872,72.0866618 C49.8293513,73.5528436 44.6416846,74.5302982 39.1339667,74.5302982 C14.1760436,74.5302982 3.64271026,61.9862982 3.64271026,43.2517527 L3.64271026,1.38208 C7.69399231,0.567534545 11.7452744,0.404625455 15.6345051,0.404625455 C19.6878128,0.404625455 23.7390949,0.567534545 27.7903769,1.38208 L27.7903769,37.8737164 C27.7903769,48.3019345 31.0314026,53.5150255 42.212941,53.5150255 C46.7483513,53.5150255 51.2878128,52.5375709 54.3667872,50.5806255 L54.3667872,1.38208 C58.4180692,0.567534545 62.4693513,0.404625455 66.3585821,0.404625455 C70.4098641,0.404625455 74.4611462,0.567534545 78.5124282,1.38208" id="Fill-10" fill="#1D1D1B" mask="url(#mask-4)"></path>
                    </g>
                </g>
                <g id="Group" transform="translate(0.000000, 19.000000)">
                    <path d="M93.851547,86.1102074 C90.1656973,90.9075896 85.5351413,94.8199888 80.0581895,97.7490947 C77.9722579,98.8646631 75.7665623,99.8376033 73.4399544,100.662484 L64.6428037,67.831071 C70.7021548,63.2086879 73.7134269,55.3056854 71.6443396,47.5837463 C69.6810262,40.256561 63.6755978,35.0739083 56.605569,33.7320044 C53.7899931,33.2023025 50.8044107,33.2748589 47.8390671,34.0694204 C37.4322568,36.8579168 31.2268205,47.4279403 33.9732324,57.677689 C36.0423197,65.3996281 42.6016591,70.738193 50.1604027,71.7116186 L53.2779513,83.3464686 C51.7963184,84.0849168 50.4810539,85.1350779 49.4441923,86.4372415 L48.3641053,87.8029465 C48.2720877,87.9092526 48.199691,88.0325696 48.1450594,88.1659718 C47.8360987,88.9242265 48.2019657,89.7837255 48.9764809,90.0883635 L50.5928605,90.7241297 C52.1418909,91.3334057 53.8060238,91.5852397 55.4583797,91.4839381 L56.4456034,95.1683072 C55.5091475,95.805212 54.6627048,96.5812981 53.9536078,97.4764598 L52.8716652,98.8352393 C52.7815033,98.9484709 52.7091065,99.0717879 52.6596461,99.1963818 C52.3455142,99.9634448 52.7184082,100.821061 53.4840408,101.120656 L55.1004204,101.756422 C56.1620973,102.177107 57.2831812,102.425996 58.4126282,102.509343 L58.7407525,103.73392 C56.6680908,103.910568 54.5276687,104 52.3190175,104 L51.6809825,104 C40.7961614,104 31.5684772,101.827881 23.9418105,97.7490947 C16.3151439,93.6703088 10.3296912,87.6848561 6.25090527,80.0581895 C2.1721193,72.4315228 -1.78425186e-13,63.2038386 -1.78425186e-13,52.3190175 L-1.78425186e-13,51.6809825 C-1.78425186e-13,40.7961614 2.1721193,31.5684772 6.25090527,23.9418105 C10.3296912,16.3151439 16.3151439,10.3296912 23.9418105,6.25090527 C31.5684772,2.1721193 40.7961614,0 51.6809825,0 L52.3190175,0 C63.2038386,0 72.4315228,2.1721193 80.0581895,6.25090527 C87.6848561,10.3296912 93.6703088,16.3151439 97.7490947,23.9418105 C101.827881,31.5684772 104,40.7961614 104,51.6809825 L104,52.3190175 C104,58.0408111 103.399787,63.3046947 102.237919,68.1188199 L79.2999516,55.1681372 C80.3166874,47.7263604 76.8115981,40.1228787 69.8213388,36.1703602 C69.1029866,35.7647815 68.3694648,35.4149518 67.6277961,35.1189893 C67.5923219,35.0989607 67.5586936,35.085821 67.5180426,35.074563 C67.4367406,35.052047 67.3539535,35.0520794 67.2696814,35.07466 C67.2064773,35.0915955 67.1469649,35.1223087 67.0963211,35.1580291 C67.0789448,35.177452 67.0545458,35.1987566 67.0301468,35.2200612 C66.9329116,35.3347169 66.8855568,35.4950748 66.9280117,35.6535187 C66.9446245,35.7155185 66.9752827,35.7737549 67.0092718,35.8163318 C67.0307006,35.8401238 67.0521294,35.8639158 67.0717124,35.880819 C69.8272038,38.8046852 73.2891247,42.4548138 74.4907834,46.9394652 C76.6209127,54.8892159 74.2238723,63.2472205 68.3579554,68.9684948 C68.3405791,68.9879176 68.3161802,69.0092223 68.2917812,69.0305269 C68.194546,69.1451825 68.1471912,69.3055405 68.1896461,69.4639844 C68.2560973,69.7119835 68.5203078,69.855309 68.7731242,69.787567 C68.7941922,69.7819219 68.822283,69.774395 68.8415051,69.761861 C68.8625732,69.7562158 68.8747727,69.7455635 68.888818,69.7418 C69.8901748,69.2372165 70.8516442,68.6399522 71.752158,67.9556524 L82.2879895,73.9041398 C81.7590232,75.4413505 81.5766938,77.0924171 81.7658028,78.7251752 L81.9663478,80.4287037 C81.9873739,80.5633556 82.0242912,80.7011329 82.073408,80.8282579 C82.3943537,81.5765922 83.2757126,81.9163429 84.0397415,81.5934866 L85.6483796,80.9114155 C87.1886369,80.2550505 88.5541746,79.2837118 89.6559045,78.0581877 L92.9904774,79.940874 C92.780225,81.0382793 92.7359075,82.1650572 92.8693636,83.281118 L93.0699086,84.9846465 C93.0857579,85.128069 93.1208294,85.2589574 93.1788147,85.3910896 C93.3168609,85.7118472 93.5591664,85.959068 93.851547,86.1102074 Z M55.7431325,44.3365871 C56.2667929,46.6875194 54.8434853,49.0528042 52.4921839,49.6828335 C51.7202204,49.8896805 50.9448274,49.8854255 50.2198564,49.7010719 C48.6754624,49.3198124 47.3775663,48.1304304 46.9364869,46.4842997 C46.2909587,44.0751557 47.728364,41.5925107 50.1504878,40.9435046 C52.5655293,40.2963962 55.0516813,41.7277272 55.6972095,44.1368712 C55.7142469,44.2004556 55.7331773,44.271105 55.7431325,44.3365871 Z" id="Combined-Shape" fill="#50E3AC" fill-rule="nonzero"></path>
                    <g id="Group-6" transform="translate(55.670677, 70.775543) rotate(-15.000000) translate(-55.670677, -70.775543) translate(36.170677, 32.775543)">
                        <g id="Group-3">
                            <mask id="mask-6" fill="white">
                                <use xlink:href="#path-5"></use>
                            </mask>
                            <g id="Clip-2"></g>
                        </g>
                    </g>
                </g>
            </g>
        </g>
    </g>
</svg>